<svg width="2754" height="2214" viewBox="81 257 918 738" fill="none" xmlns="http://www.w3.org/2000/svg">
<path d="M574.914 740.741L597.914 768.741L540.414 839.241L482.914 768.741L505.914 740.741C462.581 634.908 375.614 422.94 374.414 421.74C362.814 392.94 334.914 386.074 322.414 386.24C300.414 385.44 291.248 401.574 289.414 409.74C285.914 420.24 289.714 444.14 308.914 445.74C328.114 447.34 335.248 430.074 336.414 421.24C339.414 428.24 342.914 447.24 327.414 458.24C311.914 469.24 294.414 464.24 285.914 457.74C279.114 452.54 274.747 445.574 273.414 442.74C257.414 415.14 275.081 389.241 285.914 379.741C305.514 357.741 343.748 359.574 360.414 363.241C382.014 366.841 406.414 383.408 415.914 391.241C441.414 363.241 459.247 360.524 481.914 363.241C445.514 389.641 446.914 429.241 454.914 445.741L540.414 662.241L625.914 445.741C633.914 429.241 635.314 389.641 598.914 363.241C621.581 360.524 639.414 363.241 664.914 391.241C674.414 383.408 698.814 366.841 720.414 363.241C737.081 359.574 775.314 357.741 794.914 379.741C805.747 389.241 823.414 415.14 807.414 442.74C806.081 445.574 801.714 452.54 794.914 457.74C786.414 464.24 768.914 469.24 753.414 458.24C737.914 447.24 741.414 428.24 744.414 421.24C745.58 430.074 752.714 447.34 771.914 445.74C791.114 444.14 794.914 420.24 791.414 409.74C789.58 401.574 780.414 385.44 758.414 386.24C745.914 386.074 718.014 392.94 706.414 421.74C705.214 422.94 618.247 634.908 574.914 740.741Z" fill="white"/>
<path d="M505.914 740.741L482.914 768.741L540.414 839.241L597.914 768.741L574.914 740.741M664.914 391.241C674.414 383.408 698.814 366.841 720.414 363.241C737.081 359.574 775.314 357.741 794.914 379.741C805.747 389.241 823.414 415.14 807.414 442.74C806.081 445.574 801.714 452.54 794.914 457.74C786.414 464.24 768.914 469.24 753.414 458.24C737.914 447.24 741.414 428.24 744.414 421.24C745.58 430.074 752.714 447.34 771.914 445.74C791.114 444.14 794.914 420.24 791.414 409.74C789.58 401.574 780.414 385.44 758.414 386.24C745.914 386.074 718.014 392.94 706.414 421.74C705.214 422.94 618.247 634.908 574.914 740.741M574.914 740.741H571M597.914 768.741H565.5M597.914 768.741L571 740.741M540.414 839.241L515.5 768.741M540.414 839.241L565.5 768.741M482.914 768.741H515.5M482.914 768.741L510 740.741M415.914 391.241C406.414 383.408 382.014 366.841 360.414 363.241C343.748 359.574 305.514 357.741 285.914 379.741C275.081 389.241 257.414 415.14 273.414 442.74C274.747 445.574 279.114 452.54 285.914 457.74C294.414 464.24 311.914 469.24 327.414 458.24C342.914 447.24 339.414 428.24 336.414 421.24C335.248 430.074 328.114 447.34 308.914 445.74C289.714 444.14 285.914 420.24 289.414 409.74C291.248 401.574 300.414 385.44 322.414 386.24C334.914 386.074 362.814 392.94 374.414 421.74C375.614 422.94 462.581 634.908 505.914 740.741M505.914 740.741H510M515.5 768.741H565.5M515.5 768.741L510 740.741M515.5 768.741L540.414 740.741M565.5 768.741L540.414 740.741M565.5 768.741L571 740.741M510 740.741H540.414M336.414 421.24C336.987 433.66 330.328 456.5 308.328 456C297.828 456.5 277.828 444.5 276.828 420C276.828 406 282.328 387.5 307.328 377.5C324.164 370.766 365.328 368.76 393.328 406.5L410.078 430L426.828 453.5M540.414 662.241L454.914 445.741C446.914 429.241 445.514 389.641 481.914 363.241C459.247 360.524 441.414 363.241 415.914 391.241M415.914 391.241L426.828 453.5M481.914 363.241C461.219 369.327 421.228 395.9 426.828 453.5M664.914 391.241C639.414 363.241 621.581 360.524 598.914 363.241C635.314 389.641 633.914 429.241 625.914 445.741L540.414 662.241M540.414 662.241V722.5M598.914 363.241C619.609 369.327 659.6 395.9 654 453.5M664.914 391.241L654 453.5M744.414 421.24C743.841 433.66 750.5 456.5 772.5 456C783 456.5 803 444.5 804 420C804 406 798.5 387.5 773.5 377.5C756.664 370.766 715.5 368.76 687.5 406.5L670.75 430L654 453.5M540.414 722.5V740.741M540.414 722.5L654 453.5M540.414 722.5L426.828 453.5M540.414 740.741H571" stroke="white" stroke-width="1.5"/>
<g clip-path="url(#clip0_390_23)">
<path d="M509.354 288.646L534.342 304.732L540.5 257L546.587 304.703L570.354 289.354L555.267 313.341L599 319.5L555.267 325.659L570.354 349.646L546.587 334.297L540.5 383L534.342 334.268L509.354 350.354L525.704 325.588L482 319.5L525.704 313.412L509.354 288.646Z" fill="white" stroke="white"/>
<path d="M540.5 319.5L509.354 288.646M540.5 319.5V257M540.5 319.5L570.354 289.354M540.5 319.5H599M540.5 319.5L570.354 349.646M540.5 319.5V383M540.5 319.5L509.354 350.354M540.5 319.5H482" stroke="white"/>
</g>
<path d="M146.17 931.842C146.366 931.842 146.464 932.038 146.464 932.43C146.464 932.822 146.366 933.018 146.17 933.018C143.753 933.018 141.466 934.063 139.31 936.154C137.219 938.245 135.521 941.054 134.214 944.582L116.084 992.994C116.019 993.255 115.659 993.386 115.006 993.386C114.418 993.386 114.059 993.255 113.928 992.994L88.9383 939.976C87.8276 937.689 86.6843 935.958 85.5083 934.782C84.3323 933.606 82.993 933.018 81.4903 933.018C81.2943 933.018 81.1963 932.822 81.1963 932.43C81.1963 932.038 81.2943 931.842 81.4903 931.842C82.2743 931.842 82.8623 931.875 83.2543 931.94C83.7116 932.005 84.2996 932.071 85.0183 932.136C85.8023 932.136 87.011 932.136 88.6443 932.136C92.303 932.136 95.2756 932.136 97.5623 932.136C99.849 932.071 101.711 932.005 103.148 931.94C104.585 931.875 105.827 931.842 106.872 931.842C107.068 931.842 107.166 932.038 107.166 932.43C107.166 932.822 107.068 933.018 106.872 933.018C104.063 933.018 102.201 933.802 101.286 935.37C100.371 936.938 100.535 939.061 101.776 941.74L119.612 979.764L115.006 987.8L131.47 944.288C132.646 941.087 132.711 938.408 131.666 936.252C130.686 934.096 128.595 933.018 125.394 933.018C125.198 933.018 125.1 932.822 125.1 932.43C125.1 932.038 125.198 931.842 125.394 931.842C127.289 931.842 129.085 931.907 130.784 932.038C132.483 932.103 134.737 932.136 137.546 932.136C139.375 932.136 140.845 932.103 141.956 932.038C143.132 931.907 144.537 931.842 146.17 931.842ZM206.749 993.092H163.433C163.237 993.092 163.139 992.896 163.139 992.504C163.139 992.112 163.237 991.916 163.433 991.916C165.459 991.916 166.961 991.753 167.941 991.426C168.921 991.099 169.575 990.446 169.901 989.466C170.228 988.486 170.391 987.049 170.391 985.154V939.78C170.391 937.885 170.228 936.481 169.901 935.566C169.575 934.586 168.921 933.933 167.941 933.606C166.961 933.214 165.459 933.018 163.433 933.018C163.237 933.018 163.139 932.822 163.139 932.43C163.139 932.038 163.237 931.842 163.433 931.842H204.985C205.639 931.842 205.965 932.136 205.965 932.724L206.161 945.758C206.161 945.889 205.998 945.987 205.671 946.052C205.345 946.117 205.116 946.052 204.985 945.856C203.94 942.001 202.176 939.192 199.693 937.428C197.211 935.599 193.944 934.684 189.893 934.684H186.953C185.647 934.684 184.569 934.88 183.719 935.272C182.87 935.599 182.249 936.154 181.857 936.938C181.465 937.722 181.269 938.702 181.269 939.878V984.762C181.269 986.003 181.433 987.049 181.759 987.898C182.086 988.747 182.576 989.368 183.229 989.76C183.883 990.152 184.732 990.348 185.777 990.348H189.011C194.107 990.348 198.191 989.303 201.261 987.212C204.332 985.121 206.586 981.887 208.023 977.51C208.089 977.314 208.285 977.281 208.611 977.412C209.003 977.477 209.199 977.575 209.199 977.706C208.938 979.601 208.709 981.855 208.513 984.468C208.317 987.016 208.219 989.401 208.219 991.622C208.219 992.602 207.729 993.092 206.749 993.092ZM201.261 971.238C201.261 968.559 200.249 966.469 198.223 964.966C196.198 963.398 193.225 962.614 189.305 962.614H176.075V959.87H189.403C193.258 959.87 196.165 959.217 198.125 957.91C200.151 956.538 201.163 954.709 201.163 952.422C201.163 952.226 201.327 952.128 201.653 952.128C202.045 952.128 202.241 952.226 202.241 952.422C202.241 954.578 202.209 956.277 202.143 957.518C202.143 958.694 202.143 959.935 202.143 961.242C202.143 962.875 202.176 964.476 202.241 966.044C202.372 967.612 202.437 969.343 202.437 971.238C202.437 971.369 202.241 971.434 201.849 971.434C201.457 971.434 201.261 971.369 201.261 971.238ZM248.082 939.878V984.762C248.082 986.33 248.212 987.539 248.474 988.388C248.735 989.172 249.258 989.695 250.042 989.956C250.891 990.217 252.1 990.348 253.668 990.348H257C262.096 990.348 266.506 988.976 270.23 986.232C273.954 983.488 276.436 979.829 277.678 975.256C277.743 975.06 277.939 974.995 278.266 975.06C278.592 975.125 278.756 975.256 278.756 975.452C278.56 977.608 278.364 980.221 278.168 983.292C277.972 986.297 277.874 989.074 277.874 991.622C277.874 992.602 277.384 993.092 276.404 993.092H230.148C230.017 993.092 229.952 992.896 229.952 992.504C229.952 992.112 230.017 991.916 230.148 991.916C232.173 991.916 233.676 991.753 234.656 991.426C235.636 991.099 236.289 990.446 236.616 989.466C237.008 988.486 237.204 987.049 237.204 985.154V939.78C237.204 937.885 237.008 936.481 236.616 935.566C236.289 934.586 235.636 933.933 234.656 933.606C233.676 933.214 232.173 933.018 230.148 933.018C230.017 933.018 229.952 932.822 229.952 932.43C229.952 932.038 230.017 931.842 230.148 931.842C231.716 931.842 233.578 931.907 235.734 932.038C237.955 932.103 240.242 932.136 242.594 932.136C245.076 932.136 247.363 932.103 249.454 932.038C251.544 931.907 253.406 931.842 255.04 931.842C255.236 931.842 255.334 932.038 255.334 932.43C255.334 932.822 255.236 933.018 255.04 933.018C253.08 933.018 251.577 933.214 250.532 933.606C249.552 933.933 248.898 934.586 248.572 935.566C248.245 936.546 248.082 937.983 248.082 939.878ZM305.796 980.646L306.776 934.096L309.618 934.292L308.54 980.646C308.475 984.109 309.161 986.853 310.598 988.878C312.101 990.903 314.191 991.916 316.87 991.916C317.066 991.916 317.164 992.112 317.164 992.504C317.164 992.896 317.066 993.092 316.87 993.092C315.433 993.092 313.963 993.059 312.46 992.994C310.957 992.929 309.259 992.896 307.364 992.896C305.273 992.896 303.379 992.929 301.68 992.994C299.981 993.059 298.413 993.092 296.976 993.092C296.78 993.092 296.682 992.896 296.682 992.504C296.682 992.112 296.78 991.916 296.976 991.916C299.655 991.916 301.778 990.903 303.346 988.878C304.914 986.853 305.731 984.109 305.796 980.646ZM375.964 991.916C376.095 991.916 376.16 992.112 376.16 992.504C376.16 992.896 376.095 993.092 375.964 993.092C374.265 993.092 372.338 993.059 370.182 992.994C368.026 992.929 365.772 992.896 363.42 992.896C361.003 992.896 358.749 992.929 356.658 992.994C354.567 993.059 352.673 993.092 350.974 993.092C350.778 993.092 350.68 992.896 350.68 992.504C350.68 992.112 350.778 991.916 350.974 991.916C354.045 991.916 356.005 991.491 356.854 990.642C357.769 989.793 358.128 987.963 357.932 985.154L355.678 941.642L360.676 933.802L335.686 992.406C335.621 992.667 335.359 992.798 334.902 992.798C334.51 992.798 334.249 992.667 334.118 992.406L306.58 939.976C304.097 935.337 301.125 933.018 297.662 933.018C297.466 933.018 297.368 932.822 297.368 932.43C297.368 932.038 297.466 931.842 297.662 931.842C299.034 931.842 300.471 931.875 301.974 931.94C303.477 932.005 304.751 932.038 305.796 932.038C307.495 932.038 308.965 932.005 310.206 931.94C311.513 931.875 312.525 931.842 313.244 931.842C314.159 931.842 314.845 932.169 315.302 932.822C315.825 933.475 316.641 934.847 317.752 936.938L339.704 978.098L334.804 986.918L357.736 934.292C358.128 933.377 358.52 932.757 358.912 932.43C359.369 932.038 359.957 931.842 360.676 931.842C361.329 931.842 362.015 931.875 362.734 931.94C363.453 932.005 364.302 932.038 365.282 932.038C367.373 932.038 369.137 932.005 370.574 931.94C372.077 931.875 373.547 931.842 374.984 931.842C375.18 931.842 375.278 932.038 375.278 932.43C375.278 932.822 375.18 933.018 374.984 933.018C371.979 933.018 369.757 933.639 368.32 934.88C366.948 936.121 366.327 938.049 366.458 940.662L368.81 985.154C368.941 987.049 369.169 988.486 369.496 989.466C369.888 990.446 370.574 991.099 371.554 991.426C372.534 991.753 374.004 991.916 375.964 991.916ZM427.945 994.268C423.241 994.268 418.962 993.451 415.107 991.818C411.318 990.119 408.051 987.8 405.307 984.86C402.629 981.92 400.538 978.555 399.035 974.766C397.598 970.911 396.879 966.828 396.879 962.516C396.879 957.224 397.892 952.585 399.917 948.6C402.008 944.615 404.752 941.315 408.149 938.702C411.547 936.023 415.271 934.031 419.321 932.724C423.372 931.417 427.39 930.764 431.375 930.764C436.21 930.764 440.522 931.646 444.311 933.41C448.166 935.109 451.433 937.428 454.111 940.368C456.79 943.308 458.815 946.64 460.187 950.364C461.625 954.088 462.343 957.91 462.343 961.83C462.343 966.403 461.429 970.65 459.599 974.57C457.77 978.49 455.255 981.92 452.053 984.86C448.917 987.8 445.259 990.119 441.077 991.818C436.961 993.451 432.584 994.268 427.945 994.268ZM431.179 991.818C434.838 991.818 438.105 990.773 440.979 988.682C443.854 986.591 446.108 983.521 447.741 979.47C449.44 975.419 450.289 970.487 450.289 964.672C450.289 958.661 449.375 953.304 447.545 948.6C445.716 943.896 443.103 940.205 439.705 937.526C436.308 934.782 432.225 933.41 427.455 933.41C421.51 933.41 416.937 935.664 413.735 940.172C410.534 944.68 408.933 950.919 408.933 958.89C408.933 963.659 409.489 968.069 410.599 972.12C411.71 976.105 413.245 979.601 415.205 982.606C417.231 985.546 419.583 987.833 422.261 989.466C425.005 991.034 427.978 991.818 431.179 991.818ZM493.275 980.646V934.096L496.215 934.292V980.646C496.215 984.109 496.933 986.853 498.371 988.878C499.808 990.903 501.801 991.916 504.349 991.916C504.479 991.916 504.545 992.112 504.545 992.504C504.545 992.896 504.479 993.092 504.349 993.092C502.911 993.092 501.409 993.059 499.841 992.994C498.338 992.929 496.672 992.896 494.843 992.896C492.883 992.896 490.955 992.929 489.061 992.994C487.231 993.059 485.533 993.092 483.965 993.092C483.769 993.092 483.671 992.896 483.671 992.504C483.671 992.112 483.769 991.916 483.965 991.916C486.839 991.916 489.093 990.903 490.727 988.878C492.425 986.853 493.275 984.109 493.275 980.646ZM543.255 994.562C543.255 994.758 543.091 994.856 542.765 994.856C542.503 994.921 542.307 994.921 542.177 994.856L493.863 939.878C491.511 937.199 489.518 935.403 487.885 934.488C486.251 933.508 484.618 933.018 482.985 933.018C482.854 933.018 482.789 932.822 482.789 932.43C482.789 932.038 482.854 931.842 482.985 931.842C484.291 931.842 485.631 931.875 487.003 931.94C488.375 932.005 489.649 932.038 490.825 932.038C493.177 932.038 495.3 932.005 497.195 931.94C499.089 931.875 500.559 931.842 501.605 931.842C502.454 931.842 503.075 932.234 503.467 933.018C503.924 933.737 504.937 935.043 506.505 936.938L542.471 978.392L543.255 994.562ZM543.255 944.386V994.562L540.413 991.622V944.386C540.413 940.923 539.694 938.179 538.257 936.154C536.819 934.063 534.827 933.018 532.279 933.018C532.148 933.018 532.083 932.822 532.083 932.43C532.083 932.038 532.148 931.842 532.279 931.842C533.716 931.842 535.186 931.907 536.689 932.038C538.257 932.103 539.955 932.136 541.785 932.136C543.549 932.136 545.28 932.103 546.979 932.038C548.677 931.907 550.245 931.842 551.683 931.842C551.813 931.842 551.879 932.038 551.879 932.43C551.879 932.822 551.813 933.018 551.683 933.018C549.069 933.018 547.011 934.063 545.509 936.154C544.006 938.179 543.255 940.923 543.255 944.386ZM588.369 934.096C584.384 934.096 580.986 935.435 578.177 938.114C575.433 940.727 573.244 944.451 571.611 949.286C571.546 949.482 571.35 949.58 571.023 949.58C570.696 949.515 570.533 949.384 570.533 949.188C570.664 948.273 570.794 946.999 570.925 945.366C571.056 943.667 571.186 941.838 571.317 939.878C571.513 937.918 571.644 936.023 571.709 934.194C571.84 932.365 571.905 930.862 571.905 929.686C571.905 929.359 572.068 929.196 572.395 929.196C572.787 929.196 572.983 929.359 572.983 929.686C572.983 930.339 573.31 930.829 573.963 931.156C574.682 931.417 575.466 931.613 576.315 931.744C577.23 931.809 577.981 931.842 578.569 931.842C584.188 932.038 590.754 932.136 598.267 932.136C602.84 932.136 606.499 932.103 609.243 932.038C611.987 931.907 614.633 931.842 617.181 931.842C619.533 931.842 621.297 931.711 622.473 931.45C623.714 931.123 624.498 930.437 624.825 929.392C624.89 929.131 625.086 929 625.413 929C625.805 929 626.001 929.131 626.001 929.392C625.87 930.437 625.74 931.907 625.609 933.802C625.544 935.631 625.446 937.591 625.315 939.682C625.25 941.707 625.184 943.602 625.119 945.366C625.054 947.065 625.021 948.339 625.021 949.188C625.021 949.384 624.858 949.482 624.531 949.482C624.204 949.482 624.008 949.384 623.943 949.188C622.963 944.027 621.101 940.237 618.357 937.82C615.678 935.337 612.412 934.096 608.557 934.096C607.25 934.096 606.238 934.292 605.519 934.684C604.866 935.011 604.408 935.599 604.147 936.448C603.951 937.297 603.853 938.473 603.853 939.976V985.154C603.853 987.049 604.049 988.486 604.441 989.466C604.833 990.446 605.584 991.099 606.695 991.426C607.871 991.753 609.635 991.916 611.987 991.916C612.183 991.916 612.281 992.112 612.281 992.504C612.281 992.896 612.183 993.092 611.987 993.092C610.158 993.092 608.1 993.059 605.813 992.994C603.526 992.929 601.011 992.896 598.267 992.896C595.654 992.896 593.204 992.929 590.917 992.994C588.63 993.059 586.54 993.092 584.645 993.092C584.449 993.092 584.351 992.896 584.351 992.504C584.351 992.112 584.449 991.916 584.645 991.916C586.932 991.916 588.663 991.753 589.839 991.426C591.015 991.099 591.799 990.446 592.191 989.466C592.648 988.486 592.877 987.049 592.877 985.154V939.78C592.877 938.343 592.746 937.232 592.485 936.448C592.289 935.599 591.864 935.011 591.211 934.684C590.558 934.292 589.61 934.096 588.369 934.096Z" fill="white"/>
<path d="M687.246 985.154C687.246 987.049 687.409 988.486 687.736 989.466C688.063 990.446 688.716 991.099 689.696 991.426C690.676 991.753 692.179 991.916 694.204 991.916C694.4 991.916 694.498 992.112 694.498 992.504C694.498 992.896 694.4 993.092 694.204 993.092C692.505 993.092 690.611 993.059 688.52 992.994C686.429 992.929 684.143 992.896 681.66 992.896C679.308 992.896 677.054 992.929 674.898 992.994C672.742 993.059 670.815 993.092 669.116 993.092C668.985 993.092 668.92 992.896 668.92 992.504C668.92 992.112 668.985 991.916 669.116 991.916C671.141 991.916 672.644 991.753 673.624 991.426C674.669 991.099 675.355 990.446 675.682 989.466C676.074 988.486 676.27 987.049 676.27 985.154V939.78C676.27 937.885 676.074 936.481 675.682 935.566C675.355 934.586 674.669 933.933 673.624 933.606C672.644 933.214 671.141 933.018 669.116 933.018C668.985 933.018 668.92 932.822 668.92 932.43C668.92 932.038 668.985 931.842 669.116 931.842C670.815 931.842 672.742 931.907 674.898 932.038C677.054 932.103 679.308 932.136 681.66 932.136C684.143 932.136 686.429 932.103 688.52 932.038C690.676 931.907 692.571 931.842 694.204 931.842C694.4 931.842 694.498 932.038 694.498 932.43C694.498 932.822 694.4 933.018 694.204 933.018C692.244 933.018 690.741 933.214 689.696 933.606C688.716 933.998 688.063 934.684 687.736 935.664C687.409 936.644 687.246 938.081 687.246 939.976V985.154ZM724.662 980.646V934.096L727.602 934.292V980.646C727.602 984.109 728.321 986.853 729.758 988.878C731.195 990.903 733.188 991.916 735.736 991.916C735.867 991.916 735.932 992.112 735.932 992.504C735.932 992.896 735.867 993.092 735.736 993.092C734.299 993.092 732.796 993.059 731.228 992.994C729.725 992.929 728.059 992.896 726.23 992.896C724.27 992.896 722.343 992.929 720.448 992.994C718.619 993.059 716.92 993.092 715.352 993.092C715.156 993.092 715.058 992.896 715.058 992.504C715.058 992.112 715.156 991.916 715.352 991.916C718.227 991.916 720.481 990.903 722.114 988.878C723.813 986.853 724.662 984.109 724.662 980.646ZM774.642 994.562C774.642 994.758 774.479 994.856 774.152 994.856C773.891 994.921 773.695 994.921 773.564 994.856L725.25 939.878C722.898 937.199 720.905 935.403 719.272 934.488C717.639 933.508 716.005 933.018 714.372 933.018C714.241 933.018 714.176 932.822 714.176 932.43C714.176 932.038 714.241 931.842 714.372 931.842C715.679 931.842 717.018 931.875 718.39 931.94C719.762 932.005 721.036 932.038 722.212 932.038C724.564 932.038 726.687 932.005 728.582 931.94C730.477 931.875 731.947 931.842 732.992 931.842C733.841 931.842 734.462 932.234 734.854 933.018C735.311 933.737 736.324 935.043 737.892 936.938L773.858 978.392L774.642 994.562ZM774.642 944.386V994.562L771.8 991.622V944.386C771.8 940.923 771.081 938.179 769.644 936.154C768.207 934.063 766.214 933.018 763.666 933.018C763.535 933.018 763.47 932.822 763.47 932.43C763.47 932.038 763.535 931.842 763.666 931.842C765.103 931.842 766.573 931.907 768.076 932.038C769.644 932.103 771.343 932.136 773.172 932.136C774.936 932.136 776.667 932.103 778.366 932.038C780.065 931.907 781.633 931.842 783.07 931.842C783.201 931.842 783.266 932.038 783.266 932.43C783.266 932.822 783.201 933.018 783.07 933.018C780.457 933.018 778.399 934.063 776.896 936.154C775.393 938.179 774.642 940.923 774.642 944.386ZM829.949 993.484C827.858 993.484 825.245 993.386 822.109 993.19C818.973 992.994 816.098 992.896 813.485 992.896C811.133 992.896 808.879 992.929 806.723 992.994C804.567 993.059 802.639 993.092 800.941 993.092C800.81 993.092 800.745 992.896 800.745 992.504C800.745 992.112 800.81 991.916 800.941 991.916C802.966 991.916 804.469 991.753 805.449 991.426C806.494 991.099 807.18 990.446 807.507 989.466C807.899 988.486 808.095 987.049 808.095 985.154V939.78C808.095 937.885 807.931 936.481 807.605 935.566C807.278 934.586 806.592 933.933 805.547 933.606C804.567 933.214 803.097 933.018 801.137 933.018C800.941 933.018 800.843 932.822 800.843 932.43C800.843 932.038 800.941 931.842 801.137 931.842C802.835 931.842 804.73 931.907 806.821 932.038C808.911 932.103 811.165 932.136 813.583 932.136C815.935 932.136 818.515 932.071 821.325 931.94C824.134 931.744 826.551 931.646 828.577 931.646C835.371 931.646 841.284 932.953 846.315 935.566C851.345 938.179 855.265 941.74 858.075 946.248C860.884 950.756 862.289 955.819 862.289 961.438C862.289 966.338 861.439 970.781 859.741 974.766C858.042 978.686 855.69 982.051 852.685 984.86C849.679 987.604 846.217 989.727 842.297 991.23C838.442 992.733 834.326 993.484 829.949 993.484ZM828.969 991.23C833.085 991.23 836.743 990.185 839.945 988.094C843.146 985.938 845.661 982.802 847.491 978.686C849.32 974.57 850.235 969.539 850.235 963.594C850.235 958.041 849.385 953.01 847.687 948.502C845.988 943.994 843.603 940.433 840.533 937.82C837.462 935.141 833.803 933.802 829.557 933.802C825.767 933.802 823.056 934.161 821.423 934.88C819.789 935.599 818.973 937.297 818.973 939.976V984.076C818.973 986.493 819.593 988.29 820.835 989.466C822.141 990.642 824.853 991.23 828.969 991.23ZM903.064 985.154C903.064 987.049 903.228 988.486 903.554 989.466C903.881 990.446 904.534 991.099 905.514 991.426C906.494 991.753 907.997 991.916 910.022 991.916C910.218 991.916 910.316 992.112 910.316 992.504C910.316 992.896 910.218 993.092 910.022 993.092C908.324 993.092 906.429 993.059 904.338 992.994C902.248 992.929 899.961 992.896 897.478 992.896C895.126 992.896 892.872 992.929 890.716 992.994C888.56 993.059 886.633 993.092 884.934 993.092C884.804 993.092 884.738 992.896 884.738 992.504C884.738 992.112 884.804 991.916 884.934 991.916C886.96 991.916 888.462 991.753 889.442 991.426C890.488 991.099 891.174 990.446 891.5 989.466C891.892 988.486 892.088 987.049 892.088 985.154V939.78C892.088 937.885 891.892 936.481 891.5 935.566C891.174 934.586 890.488 933.933 889.442 933.606C888.462 933.214 886.96 933.018 884.934 933.018C884.804 933.018 884.738 932.822 884.738 932.43C884.738 932.038 884.804 931.842 884.934 931.842C886.633 931.842 888.56 931.907 890.716 932.038C892.872 932.103 895.126 932.136 897.478 932.136C899.961 932.136 902.248 932.103 904.338 932.038C906.494 931.907 908.389 931.842 910.022 931.842C910.218 931.842 910.316 932.038 910.316 932.43C910.316 932.822 910.218 933.018 910.022 933.018C908.062 933.018 906.56 933.214 905.514 933.606C904.534 933.998 903.881 934.684 903.554 935.664C903.228 936.644 903.064 938.081 903.064 939.976V985.154ZM949.398 963.79L950.868 961.046H971.056L971.742 963.79H949.398ZM998.3 991.916C998.627 991.916 998.79 992.112 998.79 992.504C998.79 992.896 998.627 993.092 998.3 993.092C996.34 993.092 994.282 993.027 992.126 992.896C990.036 992.765 988.01 992.7 986.05 992.7C983.829 992.7 981.902 992.765 980.268 992.896C978.635 993.027 976.806 993.092 974.78 993.092C974.519 993.092 974.388 992.896 974.388 992.504C974.388 992.112 974.519 991.916 974.78 991.916C977.459 991.916 978.994 991.393 979.386 990.348C979.844 989.237 979.256 987.081 977.622 983.88L957.728 944.582L962.53 936.154L943.028 979.176C941.264 983.096 941.232 986.199 942.93 988.486C944.629 990.773 947.308 991.916 950.966 991.916C951.293 991.916 951.456 992.112 951.456 992.504C951.456 992.896 951.293 993.092 950.966 993.092C949.006 993.092 947.21 993.027 945.576 992.896C943.943 992.765 941.885 992.7 939.402 992.7C936.854 992.7 934.796 992.765 933.228 992.896C931.726 993.027 929.864 993.092 927.642 993.092C927.381 993.092 927.25 992.896 927.25 992.504C927.25 992.112 927.381 991.916 927.642 991.916C929.406 991.916 930.909 991.557 932.15 990.838C933.457 990.054 934.731 988.682 935.972 986.722C937.279 984.697 938.749 981.855 940.382 978.196L961.648 931.45C961.714 931.254 962.008 931.156 962.53 931.156C963.053 931.091 963.347 931.189 963.412 931.45L987.912 979.666C989.48 982.737 990.82 985.187 991.93 987.016C993.106 988.78 994.184 990.054 995.164 990.838C996.21 991.557 997.255 991.916 998.3 991.916Z" fill="white"/>
<defs>
<clipPath id="clip0_390_23">
<rect width="117" height="126" fill="white" transform="translate(482 257)"/>
</clipPath>
</defs>
</svg>
