<svg xmlns="http://www.w3.org/2000/svg" width="2046" height="2280" viewBox="0 0 2728 3040"><g transform="translate(0.000000,3040.000000) scale(0.100000,-0.100000)" fill="#ffffff" stroke="none">
<path d="M13710 30292 c-17 -14 -23 -34 -31 -116 -5 -54 -21 -133 -35 -175
-24 -70 -27 -95 -33 -326 -8 -258 -9 -265 -55 -328 -17 -23 -21 -50 -28 -164
-7 -133 -8 -138 -39 -182 -31 -43 -33 -50 -41 -170 -7 -120 -9 -127 -40 -170
-32 -45 -33 -47 -39 -198 -7 -151 -7 -152 -42 -210 -19 -32 -38 -78 -41 -103
-9 -61 -15 -69 -68 -79 -69 -12 -142 2 -186 38 -53 44 -104 88 -127 112 -85
88 -147 142 -185 161 -25 13 -62 37 -82 53 -21 17 -52 42 -70 56 -44 35 -144
79 -178 79 -71 0 -87 -108 -25 -170 77 -77 115 -121 115 -135 0 -16 95 -114
136 -141 14 -9 28 -29 31 -45 3 -15 20 -42 39 -60 26 -25 37 -48 50 -104 20
-86 14 -117 -31 -159 -83 -77 -86 -79 -228 -86 -117 -6 -138 -10 -183 -34 -36
-19 -71 -28 -125 -33 -41 -3 -81 -11 -89 -18 -33 -27 -68 -38 -138 -45 -52 -5
-83 -14 -104 -30 -34 -25 -117 -39 -228 -40 -61 0 -86 -5 -135 -28 -56 -27
-71 -29 -231 -35 -146 -6 -180 -10 -235 -31 -37 -14 -101 -27 -149 -31 -106
-10 -125 -17 -149 -56 -26 -42 -14 -65 42 -80 23 -6 69 -20 102 -31 42 -13
112 -22 229 -29 151 -9 174 -13 220 -36 37 -19 75 -28 136 -34 67 -5 98 -14
144 -38 32 -17 72 -31 90 -31 17 0 58 -14 91 -30 33 -16 74 -30 90 -30 52 -1
119 -20 142 -42 16 -15 42 -23 90 -28 46 -4 86 -16 123 -35 51 -27 65 -29 200
-35 120 -5 152 -9 185 -27 22 -11 57 -26 78 -33 66 -21 80 -86 53 -239 -9 -50
-19 -77 -31 -84 -37 -20 -55 -48 -55 -82 0 -30 -5 -39 -35 -56 -19 -12 -35
-25 -35 -30 0 -4 -18 -25 -39 -46 -22 -22 -42 -52 -46 -71 -5 -24 -17 -40 -40
-53 -32 -19 -45 -43 -45 -84 0 -11 -16 -34 -36 -50 -34 -29 -36 -34 -38 -96
-1 -85 10 -99 80 -99 29 0 56 5 59 10 19 31 148 115 279 182 22 11 51 31 65
44 14 13 49 42 76 64 28 22 64 51 80 66 101 86 115 94 170 94 96 0 153 -67
154 -179 1 -41 10 -72 37 -126 35 -72 35 -73 42 -247 l7 -175 33 -37 c17 -20
32 -42 33 -49 0 -7 4 -71 8 -144 6 -127 7 -133 35 -162 36 -37 45 -84 46 -227
0 -107 1 -112 31 -158 42 -63 48 -97 49 -257 0 -134 0 -136 34 -203 23 -46 37
-90 42 -132 9 -86 31 -114 89 -114 59 0 67 16 74 161 6 113 7 118 40 164 34
48 35 48 40 190 6 131 8 145 32 181 38 57 41 71 48 244 l6 157 33 37 c17 20
32 38 33 39 1 1 4 66 8 144 6 138 7 143 34 171 38 39 46 83 47 232 0 137 7
175 44 229 13 20 27 56 31 81 17 108 93 148 242 126 72 -11 313 -167 313 -203
0 -16 100 -117 166 -168 40 -31 137 -64 190 -65 66 0 76 102 15 157 -22 19
-43 48 -46 63 -3 15 -21 42 -40 60 -19 18 -37 46 -40 62 -4 16 -24 50 -46 76
-52 62 -52 62 -100 102 -150 124 -192 206 -176 342 7 57 18 73 61 93 17 8 43
24 57 36 21 17 47 23 132 29 76 6 117 15 148 31 24 12 77 26 118 31 56 7 87
17 120 39 30 19 57 29 83 29 41 0 69 11 101 40 20 19 60 30 111 30 17 0 58 14
91 30 40 20 75 30 105 30 30 0 67 11 110 31 52 26 84 33 160 39 74 6 106 14
145 34 45 24 67 27 205 35 138 8 160 12 204 35 27 14 55 26 61 26 7 0 20 9 30
20 19 20 18 22 -22 61 -39 39 -44 41 -129 51 -57 6 -107 18 -142 35 -47 22
-70 26 -230 32 -165 7 -180 10 -226 34 -39 22 -63 27 -120 28 -120 1 -183 13
-210 38 -17 16 -43 25 -95 32 -43 5 -88 18 -114 33 -28 16 -65 26 -111 30 -44
3 -92 16 -135 35 -56 25 -81 30 -171 34 -102 3 -107 5 -172 44 -76 45 -148
123 -148 158 0 13 13 40 30 58 16 19 33 52 38 73 6 28 17 45 40 59 20 13 35
33 42 57 7 25 42 69 116 145 58 59 112 124 120 143 8 19 29 47 46 61 26 22 32
34 31 65 -1 48 -23 64 -82 64 -94 -1 -140 -22 -224 -107 -53 -53 -190 -163
-202 -163 -7 0 -29 -13 -50 -30 -21 -16 -43 -30 -49 -30 -7 0 -39 -16 -72 -36
-112 -67 -254 -57 -281 21 -7 21 -22 48 -33 60 -34 36 -40 73 -40 248 -1 199
-7 234 -49 282 -28 32 -31 43 -31 98 0 80 -13 123 -47 159 -27 29 -28 33 -34
178 -5 124 -9 153 -25 176 -51 72 -51 72 -56 200 -4 104 -8 129 -25 152 -45
61 -47 73 -53 249 -6 191 -8 196 -82 234 -34 18 -37 18 -58 1z M3240 24950
c-41 -4 -104 -16 -140 -25 -43 -11 -131 -19 -260 -23 -189 -7 -196 -8 -235
-34 -32 -21 -57 -28 -125 -33 -67 -5 -93 -12 -122 -32 -25 -17 -61 -28 -115
-36 -56 -7 -86 -17 -106 -34 -16 -12 -41 -26 -55 -29 -56 -12 -91 -26 -102
-39 -6 -8 -28 -19 -48 -26 -20 -7 -53 -22 -72 -35 -19 -12 -53 -27 -76 -33
-22 -6 -51 -22 -64 -35 -14 -16 -39 -28 -67 -32 -28 -4 -58 -17 -77 -34 -17
-15 -41 -30 -54 -34 -12 -4 -27 -16 -32 -27 -6 -10 -29 -28 -50 -39 -22 -11
-40 -25 -40 -30 0 -6 -12 -16 -27 -23 -16 -6 -57 -31 -93 -54 -134 -88 -157
-107 -235 -197 -22 -26 -51 -56 -63 -69 -13 -12 -41 -39 -62 -59 -21 -21 -43
-38 -49 -38 -5 0 -18 -14 -28 -30 -9 -17 -26 -33 -36 -36 -10 -3 -28 -27 -39
-53 -11 -29 -31 -54 -48 -64 -16 -10 -32 -26 -35 -37 -4 -11 -19 -27 -35 -35
-32 -17 -50 -43 -50 -74 0 -11 -15 -32 -35 -47 -23 -17 -39 -40 -45 -65 -6
-22 -21 -46 -34 -54 -27 -18 -46 -56 -46 -91 0 -16 -13 -37 -36 -58 -27 -25
-37 -42 -41 -77 -4 -32 -13 -51 -35 -69 -30 -26 -47 -76 -48 -137 0 -24 -9
-40 -30 -60 -35 -31 -50 -76 -50 -155 0 -50 -4 -62 -31 -93 -47 -53 -48 -73
-48 -630 0 -560 2 -592 44 -635 25 -26 29 -39 36 -131 9 -96 11 -104 43 -139
27 -30 34 -48 40 -97 6 -52 12 -65 41 -92 22 -19 35 -41 35 -56 0 -37 18 -68
49 -86 22 -13 29 -26 34 -60 3 -24 10 -45 16 -47 28 -9 60 -46 66 -75 4 -17
22 -48 41 -67 90 -92 112 -119 119 -149 4 -17 16 -36 28 -43 12 -6 38 -27 59
-47 39 -39 76 -71 153 -131 28 -22 64 -53 82 -70 18 -16 39 -30 47 -30 9 0 23
-11 32 -25 11 -16 35 -30 69 -41 30 -8 64 -23 77 -33 13 -10 34 -22 48 -26 14
-4 39 -20 55 -35 20 -18 46 -30 78 -34 26 -4 55 -15 65 -25 27 -29 58 -41 103
-41 28 0 62 -11 103 -32 l61 -33 340 0 340 0 47 28 c33 20 68 30 117 36 57 6
76 12 99 34 17 16 46 30 74 36 26 4 61 20 78 35 17 14 35 26 40 26 11 0 80 55
200 158 25 22 55 44 68 51 12 6 22 18 22 26 0 7 18 35 40 60 22 25 40 53 40
62 0 8 15 29 34 47 20 18 39 48 45 73 6 23 22 50 35 60 33 26 46 56 46 103 0
45 17 87 56 140 l25 34 -3 272 c-3 267 -4 273 -26 301 -12 15 -30 44 -38 63
-38 84 -106 98 -172 34 -20 -20 -43 -39 -50 -43 -18 -10 -31 -73 -32 -150 0
-59 -2 -65 -34 -95 -28 -25 -36 -41 -42 -85 -5 -42 -15 -63 -45 -98 -22 -24
-39 -50 -39 -58 0 -7 -12 -23 -27 -35 -16 -12 -37 -38 -49 -58 -23 -42 -128
-117 -186 -132 -20 -6 -45 -22 -55 -35 -12 -17 -37 -30 -70 -39 -29 -8 -64
-23 -79 -35 -14 -11 -48 -24 -76 -27 -29 -4 -66 -18 -91 -35 -42 -29 -42 -29
-206 -29 -163 0 -165 0 -227 30 -41 20 -84 33 -130 37 -52 5 -73 11 -89 29
-11 12 -40 27 -64 34 -49 13 -155 82 -177 115 -8 12 -25 28 -38 35 -14 7 -30
26 -37 43 -7 17 -45 63 -85 102 -54 54 -73 81 -78 109 -5 28 -16 42 -40 57
-29 17 -34 27 -40 69 -6 42 -11 52 -36 65 -31 16 -35 25 -45 99 -5 37 -15 57
-38 80 -33 33 -44 81 -46 198 -1 32 -10 81 -21 110 -24 64 -26 147 -4 214 10
33 19 124 26 284 l10 235 33 35 c30 31 34 43 40 114 7 71 11 83 42 117 26 28
35 49 40 88 5 44 10 54 38 71 32 20 45 44 45 87 0 13 14 33 35 49 20 15 39 40
44 60 9 33 84 114 160 174 18 14 50 42 72 63 22 20 43 37 48 37 4 0 24 15 43
33 60 55 110 87 152 98 23 6 59 24 80 40 22 16 44 29 50 29 5 0 22 12 37 26
17 16 46 30 75 35 26 5 57 18 68 28 27 26 69 41 111 41 23 0 45 9 67 29 30 25
42 29 131 35 79 5 109 12 150 33 95 50 589 45 692 -7 30 -15 69 -21 160 -26
108 -6 124 -9 163 -34 33 -22 60 -29 122 -35 58 -5 85 -12 102 -27 29 -26 61
-38 98 -38 18 0 42 -11 63 -30 20 -17 51 -32 76 -36 23 -4 57 -19 76 -34 19
-15 48 -33 65 -40 16 -7 30 -16 30 -21 0 -5 26 -22 58 -38 126 -64 155 -82
222 -138 38 -32 90 -74 115 -93 89 -69 209 -181 246 -230 14 -19 68 -78 119
-130 51 -52 101 -114 112 -138 11 -24 30 -48 45 -55 13 -6 35 -32 48 -57 13
-25 31 -52 40 -60 9 -7 23 -26 31 -42 8 -15 27 -34 43 -42 18 -10 35 -31 46
-58 9 -23 26 -49 37 -56 11 -8 31 -38 43 -66 13 -29 31 -58 40 -66 9 -8 27
-37 39 -65 13 -27 31 -56 40 -64 10 -8 27 -33 38 -55 11 -23 34 -56 49 -74 16
-18 29 -39 29 -47 0 -8 16 -33 35 -54 28 -30 38 -53 46 -100 10 -52 17 -66 45
-88 27 -20 34 -33 34 -59 0 -44 15 -81 50 -120 18 -21 31 -50 36 -80 5 -37 13
-50 35 -63 28 -15 49 -55 49 -92 0 -9 14 -29 32 -44 24 -20 33 -38 39 -76 6
-37 18 -61 43 -89 27 -30 37 -51 42 -91 5 -39 14 -59 39 -83 28 -28 33 -42 39
-99 7 -66 18 -87 56 -107 13 -7 19 -27 25 -76 6 -57 12 -71 40 -99 29 -30 33
-41 40 -111 6 -69 11 -81 37 -106 30 -28 47 -76 48 -134 0 -24 8 -38 34 -58
30 -22 35 -33 41 -87 6 -51 13 -68 42 -100 27 -30 36 -50 42 -94 6 -39 15 -63
34 -83 32 -34 47 -72 47 -122 0 -29 8 -48 30 -73 35 -41 50 -77 50 -122 0 -24
9 -45 30 -68 37 -43 50 -77 50 -133 0 -36 6 -51 36 -84 32 -35 37 -49 44 -111
7 -60 13 -76 39 -103 27 -28 33 -43 40 -104 6 -62 12 -77 39 -105 26 -26 33
-45 40 -96 8 -55 14 -68 42 -91 29 -23 33 -33 40 -100 7 -66 11 -77 40 -100
28 -23 32 -32 39 -103 6 -63 11 -81 33 -104 34 -36 48 -73 48 -128 0 -35 6
-52 30 -78 36 -42 50 -77 50 -127 0 -29 8 -48 29 -72 41 -48 51 -71 51 -122 0
-35 6 -52 29 -78 40 -46 51 -71 51 -113 0 -40 11 -66 41 -96 27 -27 39 -62 39
-113 0 -48 17 -106 31 -106 23 0 49 -66 49 -122 0 -53 3 -62 37 -99 33 -36 37
-47 42 -113 6 -64 10 -78 38 -110 34 -37 38 -50 47 -125 3 -27 13 -53 29 -70
36 -38 47 -65 47 -111 0 -46 21 -104 43 -116 23 -14 37 -49 37 -93 0 -53 16
-91 47 -117 22 -18 28 -32 34 -88 6 -58 11 -72 40 -102 29 -29 34 -43 40 -106
7 -62 12 -76 41 -105 29 -30 33 -41 39 -109 5 -61 10 -79 31 -102 36 -38 48
-65 48 -106 0 -46 15 -82 50 -123 22 -24 30 -44 30 -71 0 -57 17 -104 47 -127
21 -18 28 -33 34 -83 6 -51 13 -69 41 -100 31 -34 35 -47 41 -111 5 -64 10
-77 40 -110 29 -33 35 -47 40 -107 6 -62 10 -72 39 -95 29 -24 32 -33 39 -105
7 -72 11 -81 39 -104 29 -23 33 -33 41 -105 6 -61 14 -84 32 -104 35 -37 47
-65 47 -108 1 -66 17 -114 48 -142 27 -23 31 -33 35 -98 4 -66 7 -76 41 -113
31 -34 36 -47 36 -88 0 -68 16 -114 50 -147 22 -21 30 -38 30 -64 1 -63 18
-113 48 -140 25 -24 30 -37 36 -100 6 -55 12 -76 28 -89 42 -35 48 -44 48 -80
1 -72 16 -121 47 -149 26 -25 30 -37 36 -107 6 -71 10 -82 41 -116 29 -32 35
-48 41 -105 6 -57 13 -74 40 -104 25 -28 34 -49 39 -93 6 -45 15 -67 41 -98
28 -34 34 -50 40 -112 6 -64 11 -77 40 -108 30 -31 35 -44 41 -105 5 -58 11
-75 35 -101 33 -34 49 -80 49 -140 0 -32 7 -49 36 -82 32 -38 36 -49 41 -119
6 -72 9 -80 39 -108 28 -26 34 -40 39 -90 10 -93 14 -105 40 -117 28 -13 45
-59 45 -126 0 -36 6 -49 31 -73 34 -32 49 -73 49 -136 0 -35 7 -50 37 -84 35
-39 37 -44 41 -125 4 -80 6 -87 33 -107 32 -23 49 -69 49 -132 0 -31 7 -46 36
-76 32 -33 36 -43 43 -112 6 -63 12 -82 33 -104 36 -40 48 -66 48 -110 0 -31
6 -43 35 -68 33 -28 37 -36 44 -103 6 -65 10 -75 40 -100 30 -25 33 -32 40
-109 6 -69 11 -87 33 -110 39 -43 48 -66 48 -133 0 -55 3 -65 31 -92 38 -39
49 -66 49 -128 0 -40 6 -55 35 -90 33 -40 39 -56 49 -149 3 -32 13 -53 37 -77
30 -31 33 -41 38 -115 6 -77 8 -82 40 -108 32 -26 34 -33 40 -104 6 -72 9 -79
40 -105 30 -25 34 -35 38 -88 6 -85 9 -95 43 -134 34 -39 37 -49 43 -133 3
-51 8 -61 40 -91 35 -32 37 -36 37 -100 0 -68 2 -73 58 -118 19 -15 22 -28 22
-84 0 -64 1 -66 40 -101 39 -35 40 -38 40 -101 0 -61 2 -66 37 -98 34 -31 37
-38 42 -108 6 -68 10 -79 40 -110 31 -31 35 -43 41 -113 9 -93 14 -106 45
-123 28 -15 35 -36 35 -114 0 -54 3 -61 36 -91 31 -29 37 -41 44 -100 7 -59
13 -71 44 -100 34 -31 36 -37 36 -93 0 -72 12 -107 48 -145 24 -25 28 -39 33
-114 5 -83 7 -88 39 -114 33 -28 34 -31 41 -126 3 -54 10 -115 14 -136 6 -32
-4 -141 -21 -223 -2 -12 -20 -31 -39 -43 -26 -15 -35 -27 -35 -46 0 -25 -22
-54 -96 -126 -15 -15 -35 -35 -46 -45 -40 -40 -86 -100 -92 -122 -4 -12 -25
-34 -47 -48 -21 -13 -39 -29 -39 -34 0 -6 -15 -27 -33 -47 -18 -21 -39 -52
-46 -69 -6 -16 -25 -38 -41 -48 -17 -9 -35 -27 -41 -39 -7 -12 -24 -33 -40
-47 -15 -14 -32 -41 -38 -60 -7 -22 -23 -43 -41 -53 -16 -10 -35 -28 -41 -40
-7 -12 -27 -39 -45 -60 -19 -20 -34 -44 -34 -52 0 -8 -18 -27 -40 -41 -22 -15
-40 -31 -40 -36 0 -5 -16 -18 -35 -29 -19 -11 -37 -29 -40 -40 -4 -11 -24 -40
-46 -65 -21 -25 -39 -52 -39 -59 0 -8 -18 -26 -40 -40 -22 -14 -40 -32 -40
-40 0 -7 -18 -35 -40 -60 l-40 -46 0 -115 c0 -115 0 -115 30 -142 16 -15 36
-47 45 -72 9 -25 29 -58 45 -75 16 -16 32 -43 36 -58 4 -18 21 -38 45 -53 22
-13 39 -30 39 -37 0 -15 49 -71 140 -162 158 -157 167 -167 179 -205 7 -21 25
-43 44 -55 21 -13 35 -33 42 -58 6 -21 22 -48 37 -60 14 -12 33 -35 41 -52 8
-16 27 -41 41 -54 14 -13 30 -39 36 -57 7 -19 16 -34 21 -34 15 0 136 -123
143 -146 3 -11 33 -47 66 -80 32 -32 67 -67 77 -77 10 -10 33 -33 51 -51 18
-18 37 -50 43 -70 7 -24 20 -41 40 -52 17 -8 37 -30 44 -47 7 -18 23 -41 36
-52 12 -11 28 -35 36 -53 8 -18 27 -41 44 -50 19 -11 33 -30 41 -55 7 -23 25
-49 44 -64 18 -14 36 -33 39 -43 3 -11 15 -22 25 -25 26 -8 140 -120 140 -137
0 -8 16 -29 35 -48 19 -19 35 -40 35 -47 0 -7 18 -25 40 -39 29 -19 41 -35 46
-61 4 -22 18 -43 40 -59 18 -14 36 -33 39 -43 3 -9 19 -25 35 -34 17 -10 39
-36 50 -57 11 -21 26 -43 34 -47 8 -4 24 -25 36 -45 12 -20 30 -40 41 -43 11
-4 28 -20 38 -36 9 -15 30 -38 45 -50 16 -12 35 -37 42 -55 8 -19 26 -41 40
-50 14 -9 32 -30 40 -45 8 -16 27 -35 43 -44 22 -11 31 -24 36 -56 6 -32 14
-45 40 -60 18 -11 38 -33 45 -50 7 -16 21 -34 32 -40 11 -6 28 -30 38 -54 12
-28 30 -50 49 -59 20 -11 33 -28 40 -52 5 -19 26 -53 45 -75 20 -21 36 -43 36
-48 0 -5 9 -13 20 -16 12 -4 36 -22 55 -41 33 -32 38 -34 105 -34 68 0 130 19
130 39 0 5 17 20 39 34 29 19 40 35 45 62 5 27 16 42 41 56 22 14 38 33 45 57
7 20 22 46 35 57 12 11 32 38 43 60 11 22 32 51 46 64 14 13 28 36 31 51 3 15
20 37 36 49 17 13 37 37 45 54 7 18 36 55 64 82 28 28 68 67 89 88 21 20 41
37 46 37 14 0 125 121 125 136 0 8 34 48 75 89 54 54 77 85 85 115 8 28 19 44
40 55 21 11 32 27 41 58 7 25 27 58 50 82 85 87 97 101 108 137 7 20 20 39 29
42 28 9 118 118 131 159 8 24 22 42 37 47 13 5 35 29 50 52 15 24 31 45 36 46
5 2 18 22 29 44 11 22 33 47 48 56 16 9 37 31 47 50 10 18 26 38 35 43 10 5
25 28 34 51 10 25 29 51 47 63 18 11 37 35 43 55 13 35 114 150 134 150 5 0
16 19 23 43 6 23 28 58 47 79 61 62 101 114 112 147 6 17 15 31 20 31 4 0 31
22 58 50 28 27 55 50 60 50 6 0 15 18 21 40 10 39 27 62 56 78 8 5 22 28 30
51 8 24 28 57 45 75 84 88 109 118 109 132 0 16 122 144 138 144 4 0 18 17 30
38 11 21 30 46 40 55 11 10 27 35 37 57 10 22 26 42 36 45 28 9 39 36 46 119
7 87 -4 123 -48 155 -19 14 -29 30 -29 47 0 19 -21 46 -78 103 -43 42 -84 90
-91 106 -6 17 -35 50 -62 75 -122 109 -168 157 -175 184 -4 16 -25 48 -48 72
-67 70 -85 93 -105 132 -10 20 -33 47 -51 60 -17 13 -35 35 -41 48 -11 30 -61
95 -110 143 -20 20 -43 50 -52 66 -18 37 -183 202 -208 210 -10 3 -21 15 -25
27 -3 11 -21 37 -40 58 -24 26 -37 53 -44 91 -6 29 -19 62 -29 73 -43 46 -47
101 -10 141 26 30 39 70 39 125 0 62 13 95 50 130 28 26 30 33 30 104 0 69 3
78 29 108 42 49 51 71 51 126 0 66 15 104 50 131 25 18 30 29 30 62 0 46 11
70 51 117 23 25 29 43 29 77 0 38 6 52 37 86 35 39 37 45 43 132 7 88 8 92 41
119 31 26 34 33 40 105 6 71 8 78 39 103 30 25 34 34 41 95 6 61 10 71 42 99
33 29 36 36 39 97 3 61 7 71 41 108 31 34 37 48 37 85 0 71 11 104 46 142 27
28 34 44 34 75 0 50 23 105 55 135 19 17 25 33 25 63 0 52 15 89 49 126 22 23
30 43 33 83 3 34 13 63 27 80 44 56 50 69 60 142 8 62 15 79 36 95 28 23 45
71 45 127 0 29 8 47 35 77 31 34 36 48 42 108 5 58 11 72 36 95 31 30 46 77
47 145 0 34 6 48 31 71 33 31 48 79 49 155 0 41 5 54 28 75 41 39 52 64 52
121 0 44 5 56 34 89 29 32 36 48 42 102 6 57 11 69 41 96 30 28 36 40 43 100
7 56 14 73 34 89 33 27 46 64 46 135 0 54 3 61 30 82 33 24 50 70 50 135 0 33
7 50 30 76 36 42 50 77 50 128 0 39 23 99 38 99 17 0 36 49 43 108 5 53 12 69
40 98 30 31 33 40 38 113 5 69 10 84 33 108 34 36 48 73 48 129 0 50 11 76 47
115 17 18 27 44 32 83 5 39 15 65 33 84 37 39 48 65 48 112 0 33 6 47 35 75
34 35 39 50 49 153 4 43 12 61 41 93 33 36 35 44 35 105 0 61 2 67 35 101 22
22 37 49 40 72 3 20 8 50 11 66 2 18 17 41 36 56 27 23 32 35 40 95 6 58 13
73 38 97 33 31 37 44 43 135 3 50 8 67 29 90 37 39 48 65 48 112 0 46 21 104
43 116 21 13 37 49 37 84 0 37 12 63 51 108 21 24 29 43 29 72 0 50 15 88 47
122 20 21 27 42 34 103 7 67 12 81 42 114 28 31 35 48 40 101 6 55 12 70 41
100 29 30 34 44 40 99 5 53 11 69 39 101 29 31 35 46 40 104 6 59 11 73 42
107 31 34 35 46 35 92 0 71 14 115 49 151 20 22 31 46 36 81 5 36 16 60 41 87
24 27 34 48 34 71 1 57 17 106 48 141 23 26 31 47 36 95 6 49 13 69 38 97 31
35 47 87 48 157 0 30 7 45 34 70 30 28 35 40 41 97 6 55 12 70 40 100 28 29
34 45 40 99 6 56 12 69 40 94 28 25 34 38 40 89 5 45 14 68 36 92 38 44 49 76
49 143 0 49 4 60 34 93 28 31 36 49 41 97 6 62 22 102 56 144 13 17 24 49 28
88 6 50 13 67 39 94 25 26 34 45 39 87 4 38 14 62 35 86 34 38 48 81 48 142 0
49 12 76 47 106 20 18 25 34 32 100 6 69 11 82 34 100 30 24 47 71 47 129 0
31 7 44 35 70 31 29 36 40 44 102 7 61 12 72 40 96 31 25 33 33 40 108 6 68
11 85 33 108 34 36 48 73 48 128 0 34 6 52 29 77 41 47 51 71 51 118 0 42 23
100 40 100 16 0 40 57 40 96 0 29 7 43 36 69 34 31 36 37 43 119 8 79 11 88
45 126 34 38 36 44 36 106 0 60 3 69 28 92 40 38 52 64 52 117 0 40 5 50 40
85 31 31 40 47 40 74 0 48 16 86 51 118 27 25 29 32 29 98 0 66 2 74 30 102
43 43 50 60 50 123 0 50 3 60 35 92 21 22 37 50 40 72 4 20 9 48 11 63 3 15
21 38 40 53 29 22 34 32 34 66 0 41 23 99 40 99 19 0 34 47 41 124 5 75 8 81
40 108 31 26 34 34 40 102 5 69 8 77 42 109 29 27 37 42 37 70 0 50 15 84 50
114 24 20 30 33 30 63 0 31 8 48 40 85 36 42 40 52 40 100 0 66 12 98 49 136
26 25 29 37 33 104 3 73 5 76 41 106 30 24 37 37 37 65 0 33 11 49 64 92 9 7
16 27 16 44 0 23 10 39 40 67 28 26 40 45 40 64 0 33 24 83 46 95 17 9 43 74
44 110 0 12 10 30 21 40 41 34 46 41 53 81 4 30 15 47 41 67 22 17 35 35 35
50 0 39 18 72 48 88 25 13 30 22 34 65 4 40 12 59 41 90 25 28 38 53 43 86 6
41 34 85 55 85 4 0 14 19 24 42 17 44 53 92 116 156 20 20 40 50 43 66 5 18
38 61 84 107 85 85 138 147 164 190 10 16 22 29 28 29 21 0 118 108 130 144 7
23 22 42 41 51 16 9 29 19 29 24 0 5 32 35 71 68 39 32 82 70 97 86 14 15 30
27 35 27 5 0 31 18 56 40 25 22 57 49 71 60 14 11 47 38 73 60 27 22 57 40 67
40 18 0 125 53 198 97 19 12 50 23 71 27 23 3 48 17 66 36 16 17 47 35 69 41
23 6 52 19 66 29 14 10 49 25 78 34 30 8 69 25 87 36 24 15 62 23 132 30 73 7
111 15 147 34 l49 26 324 0 324 0 57 -29 c46 -23 76 -30 156 -35 85 -6 104
-11 129 -32 16 -13 38 -24 51 -24 40 0 138 -30 163 -50 14 -11 34 -20 44 -20
10 0 33 -13 51 -29 18 -15 51 -37 73 -48 80 -40 141 -77 180 -110 76 -65 140
-127 157 -154 9 -14 48 -59 87 -98 39 -39 71 -80 71 -91 0 -32 11 -50 41 -66
22 -11 30 -24 35 -56 7 -38 15 -50 58 -86 9 -7 18 -24 21 -37 3 -14 7 -36 10
-49 3 -14 18 -33 34 -42 34 -20 41 -39 41 -111 0 -44 5 -58 31 -88 46 -53 49
-75 49 -535 0 -450 -3 -480 -46 -515 -20 -16 -29 -35 -35 -75 -6 -39 -17 -62
-38 -84 -17 -18 -37 -53 -45 -79 -14 -46 -43 -88 -117 -166 -20 -21 -40 -52
-44 -70 -4 -18 -18 -39 -33 -49 -15 -9 -41 -30 -59 -47 -17 -16 -46 -42 -65
-57 -18 -16 -51 -44 -72 -63 -22 -19 -43 -35 -48 -35 -5 0 -24 -16 -44 -35
-20 -21 -45 -35 -59 -35 -32 0 -76 -17 -101 -41 -11 -10 -44 -23 -73 -29 -29
-5 -65 -20 -81 -33 -34 -29 -228 -41 -516 -30 -176 6 -177 6 -209 35 -20 17
-52 32 -80 37 -25 5 -56 18 -69 30 -12 11 -27 21 -33 21 -7 0 -32 17 -57 38
-26 20 -83 67 -129 104 -131 108 -180 163 -197 229 -7 24 -27 61 -46 81 -31
35 -34 43 -34 102 0 74 -8 99 -44 141 -14 17 -29 45 -32 63 -11 55 -39 82 -89
82 -51 0 -59 -8 -78 -82 -8 -32 -26 -71 -40 -88 -33 -39 -40 -98 -36 -288 l4
-148 34 -43 c32 -40 35 -50 39 -130 4 -82 22 -141 42 -141 17 0 40 -58 40 -99
0 -34 5 -44 39 -70 26 -21 41 -42 45 -64 7 -37 58 -88 249 -252 23 -19 51 -44
63 -55 12 -11 26 -20 33 -20 6 0 28 -15 49 -34 27 -24 51 -36 86 -41 32 -5 57
-17 76 -35 20 -19 42 -29 79 -33 34 -4 62 -15 81 -31 40 -33 143 -39 628 -35
l391 4 25 24 c15 14 50 28 91 37 37 8 79 23 95 34 15 10 49 24 75 30 26 6 61
22 77 35 16 14 48 28 69 31 24 4 57 20 81 40 22 19 46 34 53 34 21 0 111 72
216 172 148 142 177 168 187 168 5 0 17 20 27 45 9 25 27 53 40 61 13 9 27 29
30 46 4 17 22 47 40 67 18 20 35 45 39 57 4 12 22 35 40 52 20 18 36 44 40 65
5 26 16 42 40 57 33 20 46 44 46 87 0 11 16 40 35 63 33 40 39 56 49 149 3 32
13 53 37 77 32 33 32 36 38 147 5 84 11 120 24 138 9 13 25 35 34 48 17 23 18
65 18 556 0 577 4 526 -52 603 -11 16 -19 55 -24 120 -7 93 -8 97 -40 123 -29
24 -33 32 -36 90 -5 67 -19 119 -34 119 -19 0 -49 66 -49 108 0 37 -6 48 -40
82 -29 29 -40 47 -40 70 0 18 -9 38 -22 50 -13 12 -31 28 -40 37 -10 9 -18 29
-18 44 0 21 -11 37 -39 59 -29 24 -40 41 -45 70 -5 29 -14 43 -40 59 -18 12
-39 35 -46 51 -7 17 -20 36 -30 43 -9 7 -27 31 -39 54 -12 24 -34 49 -50 58
-16 8 -32 23 -36 34 -3 11 -21 31 -40 46 -19 14 -35 33 -35 41 0 13 -36 51
-155 163 -16 16 -45 36 -62 45 -18 9 -33 21 -33 26 0 5 -21 21 -47 36 -27 14
-72 39 -102 55 -29 16 -67 41 -83 54 -16 14 -36 25 -43 25 -7 0 -22 11 -33 24
-10 14 -32 33 -49 43 -16 10 -42 26 -56 36 -14 11 -44 21 -67 24 -26 4 -50 16
-69 35 -20 20 -43 31 -79 37 -31 5 -62 18 -82 34 -20 17 -49 29 -80 33 -27 3
-58 15 -69 25 -28 27 -65 39 -114 39 -28 0 -53 8 -79 27 -44 30 -100 42 -202
42 -59 1 -76 5 -110 29 -39 27 -41 27 -250 33 -163 5 -235 12 -316 29 -120 26
-297 24 -525 -6 -66 -9 -206 -19 -310 -22 -182 -7 -193 -8 -244 -34 -42 -22
-66 -28 -119 -28 -97 0 -178 -16 -214 -42 -23 -16 -54 -25 -105 -29 -52 -5
-87 -15 -117 -33 -26 -15 -72 -30 -112 -35 -52 -8 -72 -15 -85 -32 -13 -17
-32 -24 -79 -30 -48 -5 -68 -13 -91 -35 -20 -19 -44 -29 -82 -34 -31 -5 -69
-19 -91 -34 -21 -14 -52 -26 -67 -26 -19 0 -42 -12 -68 -35 -21 -19 -43 -35
-48 -35 -6 0 -27 -13 -48 -30 -21 -16 -56 -35 -79 -41 -22 -6 -53 -22 -69 -35
-16 -13 -32 -24 -37 -24 -4 0 -26 -15 -48 -34 -24 -19 -57 -36 -80 -39 -21 -4
-56 -20 -78 -36 -21 -17 -56 -43 -77 -58 -21 -15 -58 -45 -81 -65 -24 -21 -48
-38 -53 -38 -5 0 -18 -10 -29 -21 -18 -21 -102 -79 -154 -107 -14 -7 -38 -24
-55 -36 -16 -13 -40 -26 -52 -30 -21 -7 -71 -43 -138 -101 -16 -14 -58 -49
-93 -79 -35 -29 -71 -66 -81 -82 -10 -16 -57 -65 -106 -109 -48 -44 -102 -94
-119 -111 -66 -66 -196 -104 -235 -70 -9 7 -29 18 -46 23 -18 6 -36 21 -44 39
-8 16 -29 46 -47 67 -19 20 -34 44 -34 52 0 7 -16 26 -35 41 -23 17 -39 40
-45 65 -7 24 -21 46 -37 56 -24 16 -81 72 -256 253 -29 30 -70 69 -91 85 -81
65 -153 116 -196 141 -88 49 -121 71 -148 97 -16 15 -32 27 -37 27 -5 0 -21
11 -35 25 -36 34 -134 92 -176 104 -19 5 -50 23 -70 40 -19 17 -40 31 -47 31
-7 0 -28 11 -46 24 -18 14 -54 30 -81 36 -26 6 -58 22 -70 35 -16 17 -38 26
-79 31 -38 4 -69 16 -97 36 -32 23 -55 30 -113 35 -59 5 -79 11 -108 34 -27
22 -46 29 -80 29 -30 0 -63 10 -104 31 -52 27 -75 33 -162 39 -86 5 -109 10
-148 33 -45 26 -51 27 -280 36 -216 8 -238 10 -284 32 -72 35 -419 37 -457 3
-13 -11 -35 -28 -50 -37 -16 -10 -28 -25 -28 -35 0 -17 80 -92 98 -92 5 0 29
-13 53 -29 24 -17 67 -35 93 -41 28 -6 64 -24 83 -40 19 -17 45 -30 58 -30 26
0 75 -19 75 -30 0 -3 17 -16 38 -28 21 -11 46 -30 56 -41 10 -11 42 -27 71
-36 29 -8 58 -22 65 -31 8 -8 27 -22 44 -31 43 -22 118 -91 138 -127 9 -17 50
-66 92 -109 42 -43 76 -84 76 -92 0 -7 16 -30 35 -51 19 -20 35 -43 35 -50 0
-7 13 -28 29 -46 16 -18 39 -55 51 -81 12 -26 30 -52 40 -57 9 -5 25 -29 34
-54 12 -30 28 -51 52 -65 27 -16 34 -27 34 -52 0 -24 10 -40 40 -68 33 -30 40
-43 40 -74 0 -28 8 -46 36 -77 29 -32 37 -51 43 -97 7 -60 25 -103 41 -103 17
0 37 -54 43 -113 5 -47 13 -68 41 -105 35 -44 36 -48 36 -136 1 -119 11 -167
46 -218 25 -35 29 -52 31 -117 7 -183 26 -435 40 -536 25 -171 22 -388 -6
-510 -17 -74 -24 -147 -29 -286 -7 -179 -8 -187 -33 -220 -37 -50 -40 -62 -48
-205 -7 -130 -7 -132 -39 -168 -18 -20 -32 -40 -32 -44 -13 -180 -17 -203 -44
-231 -34 -35 -46 -79 -46 -163 0 -61 -3 -71 -31 -102 -34 -39 -49 -82 -49
-139 0 -44 -12 -70 -48 -109 -21 -23 -26 -41 -31 -104 -6 -67 -10 -79 -34
-100 -35 -29 -47 -63 -47 -124 0 -40 -5 -55 -30 -83 -39 -45 -50 -77 -50 -143
0 -62 -11 -89 -47 -119 -20 -17 -26 -34 -33 -94 -7 -63 -12 -77 -39 -105 -29
-29 -33 -42 -40 -115 -7 -67 -13 -87 -34 -109 -36 -39 -47 -65 -47 -111 0 -51
-15 -89 -47 -123 -23 -24 -27 -40 -32 -106 -5 -70 -10 -83 -38 -116 -35 -39
-39 -51 -47 -140 -4 -49 -10 -64 -37 -92 -25 -26 -34 -46 -40 -89 -5 -41 -15
-65 -38 -90 -32 -37 -37 -51 -44 -127 -3 -36 -13 -57 -41 -89 -33 -39 -36 -48
-36 -105 0 -74 -10 -105 -50 -151 -23 -26 -30 -43 -30 -76 0 -61 -16 -108 -46
-132 -21 -17 -27 -33 -35 -95 -8 -67 -13 -78 -44 -107 -26 -24 -35 -40 -35
-65 0 -54 -18 -100 -50 -129 -24 -23 -30 -36 -30 -71 0 -64 -15 -105 -49 -137
-25 -24 -31 -37 -31 -73 0 -63 -15 -105 -49 -137 -26 -24 -31 -37 -31 -74 0
-60 -16 -102 -45 -117 -28 -15 -31 -22 -40 -104 -6 -49 -12 -65 -37 -88 -28
-26 -32 -37 -39 -111 -4 -45 -8 -85 -8 -89 -1 -3 -16 -24 -35 -46 -28 -34 -34
-51 -40 -108 -6 -58 -12 -73 -40 -105 -29 -31 -35 -46 -41 -106 -6 -62 -11
-74 -40 -101 -28 -27 -34 -40 -40 -99 -6 -59 -11 -72 -40 -98 -28 -26 -33 -39
-40 -100 -6 -59 -12 -75 -40 -106 -28 -32 -34 -46 -40 -109 -6 -59 -12 -78
-37 -105 -32 -37 -48 -81 -48 -132 0 -22 -10 -44 -31 -67 -32 -38 -49 -82 -49
-133 0 -22 -10 -44 -30 -66 -38 -44 -50 -77 -50 -139 0 -43 -4 -54 -31 -79
-34 -32 -49 -74 -49 -138 0 -37 -5 -48 -34 -75 -31 -28 -36 -39 -42 -101 -6
-61 -11 -72 -40 -99 -29 -27 -35 -39 -41 -96 -5 -56 -10 -68 -41 -96 -32 -29
-35 -38 -41 -103 -6 -65 -10 -73 -41 -99 -31 -27 -34 -34 -38 -98 -4 -62 -7
-72 -38 -105 -29 -30 -35 -45 -43 -104 -6 -56 -12 -72 -34 -89 -33 -27 -47
-65 -47 -126 0 -40 -5 -55 -30 -83 -37 -43 -50 -77 -50 -133 0 -37 -6 -51 -36
-84 -32 -35 -38 -49 -43 -105 -5 -50 -13 -71 -33 -92 -37 -40 -48 -66 -48
-113 0 -33 -6 -47 -29 -68 -36 -33 -51 -70 -51 -128 0 -37 -6 -51 -37 -85 -31
-34 -37 -48 -40 -97 -6 -86 -10 -99 -48 -136 -32 -32 -35 -41 -35 -91 0 -63
-10 -88 -50 -122 -24 -20 -28 -32 -32 -89 -4 -61 -7 -69 -38 -94 -30 -25 -34
-34 -41 -95 -6 -59 -11 -71 -43 -104 -30 -30 -36 -44 -36 -78 0 -55 -12 -83
-49 -121 -24 -24 -31 -39 -31 -71 0 -53 -14 -86 -50 -123 -24 -24 -30 -38 -30
-73 0 -57 -14 -91 -50 -125 -24 -22 -30 -36 -30 -68 0 -53 -14 -87 -49 -122
-24 -24 -29 -40 -33 -90 -4 -52 -9 -65 -39 -96 -32 -33 -34 -40 -39 -118 -6
-80 -7 -85 -43 -118 -36 -35 -37 -37 -37 -109 0 -78 -15 -149 -30 -149 -19 0
-42 -50 -50 -111 -8 -57 -13 -66 -61 -110 -68 -65 -128 -65 -190 -1 -14 15
-35 34 -46 43 -13 11 -22 34 -27 68 -5 39 -15 61 -41 90 -32 35 -35 44 -35
102 -1 101 -14 147 -49 179 -24 22 -31 37 -31 67 -1 75 -16 121 -48 147 -26
23 -31 35 -37 96 -6 63 -10 73 -39 95 -29 23 -32 30 -42 126 -10 92 -14 103
-41 128 -27 24 -31 36 -37 104 -7 70 -10 78 -40 101 -29 22 -34 33 -40 87 -6
51 -13 67 -41 96 -25 26 -36 47 -40 82 -10 79 -15 92 -41 116 -29 27 -43 76
-44 147 0 40 -5 52 -30 75 -33 29 -50 76 -50 140 0 35 -5 45 -30 63 -31 22
-50 71 -50 131 0 26 -8 43 -30 64 -34 33 -50 79 -50 147 0 41 -5 54 -37 89
-33 37 -37 47 -43 116 -5 70 -8 77 -39 102 -30 25 -33 33 -38 97 -5 64 -8 71
-40 99 -31 27 -36 37 -42 96 -6 59 -11 70 -44 101 -32 31 -37 41 -37 82 0 53
-11 79 -47 110 -19 17 -26 36 -33 89 -7 57 -13 73 -44 107 -33 37 -36 45 -36
101 0 58 -2 63 -37 95 -34 31 -37 38 -42 110 -6 70 -9 78 -39 103 -31 24 -34
32 -41 105 -6 68 -11 82 -33 100 -34 27 -48 64 -48 126 0 40 -6 55 -35 90 -38
45 -42 57 -48 138 -4 46 -9 58 -41 86 -34 32 -36 37 -36 94 0 57 -3 64 -40
107 -37 43 -40 50 -40 107 0 57 -2 63 -37 95 -34 32 -37 40 -42 109 -6 66 -10
77 -40 108 -31 32 -34 42 -41 115 -6 74 -10 83 -43 121 -30 32 -37 48 -37 81
0 46 -11 72 -48 112 -22 23 -28 41 -33 104 -6 72 -8 79 -40 105 -33 27 -34 32
-40 113 -5 80 -7 87 -39 120 -29 30 -35 44 -41 100 -5 56 -11 70 -43 105 -30
34 -36 47 -36 86 0 41 -5 51 -37 81 -34 33 -37 39 -43 114 -6 72 -10 83 -40
114 -30 31 -34 42 -40 114 -6 74 -10 83 -43 121 -33 36 -37 46 -37 96 0 52 -3
58 -40 95 -38 38 -40 43 -40 100 0 66 -8 87 -51 137 -24 27 -29 42 -29 86 0
70 -14 108 -50 135 -26 18 -30 28 -30 67 0 55 -20 106 -51 128 -19 13 -24 28
-30 92 -7 69 -11 80 -42 113 -32 33 -35 42 -39 108 -3 66 -7 76 -37 107 -28
29 -34 44 -41 103 -8 77 -16 97 -54 132 -20 19 -26 34 -26 67 0 54 -13 89 -49
129 -23 27 -29 44 -34 104 -5 65 -10 77 -41 112 -29 32 -36 47 -36 82 0 56
-18 117 -36 124 -22 8 -44 58 -44 100 0 57 -15 100 -49 139 -22 25 -31 45 -31
72 -1 73 -17 126 -45 148 -23 18 -28 32 -35 94 -7 66 -11 76 -43 105 -30 28
-36 40 -42 94 -6 53 -12 67 -40 92 -29 27 -33 37 -39 107 -6 68 -11 81 -38
109 -33 34 -47 84 -48 173 0 47 -4 58 -32 87 -33 34 -46 83 -47 176 -1 41 -6
53 -35 82 -31 31 -35 41 -41 111 -7 69 -11 81 -43 116 -34 38 -36 43 -40 126
-4 80 -7 90 -34 118 -36 38 -47 84 -48 191 0 78 -1 83 -35 123 -19 23 -35 45
-36 48 0 4 -4 73 -7 154 -6 130 -10 149 -28 170 -47 51 -48 59 -55 383 -6 265
-10 322 -28 390 -29 113 -28 266 4 465 18 115 25 195 25 310 1 184 8 223 49
261 30 27 31 30 31 116 1 112 11 155 47 197 26 29 31 43 36 112 5 73 8 81 37
106 24 19 35 39 41 74 6 32 19 59 40 80 16 17 37 53 45 80 8 27 27 62 43 79
16 16 34 49 41 72 7 27 21 51 40 64 16 12 31 32 34 45 4 13 19 38 35 56 15 18
36 48 45 65 9 18 29 39 45 48 18 9 34 28 41 49 12 39 140 173 200 211 22 14
40 30 40 35 0 5 17 18 38 29 20 10 45 28 56 39 10 12 37 24 62 28 43 6 80 28
154 92 28 24 51 34 89 39 37 4 59 14 81 34 16 16 42 31 57 34 84 18 119 60
106 128 -12 61 -19 62 -317 62 l-271 0 -45 -26 c-40 -23 -60 -27 -179 -33
-123 -7 -138 -10 -164 -32 -32 -27 -45 -31 -141 -38 -52 -4 -75 -11 -92 -27
-14 -13 -49 -26 -91 -34 -37 -7 -88 -25 -113 -39 -25 -14 -54 -26 -66 -26 -12
0 -50 -15 -85 -34 -35 -18 -80 -37 -99 -41 -32 -7 -140 -57 -230 -106 -19 -10
-45 -19 -58 -19 -13 0 -35 -12 -50 -27 -31 -31 -138 -89 -194 -104 -21 -5 -42
-18 -48 -29 -6 -11 -25 -27 -43 -36 -18 -9 -46 -29 -64 -43 -17 -14 -46 -36
-65 -49 -108 -73 -200 -146 -253 -200 -106 -110 -148 -149 -191 -180 -18 -12
-35 -34 -39 -49 -3 -15 -21 -44 -38 -64 -18 -20 -39 -44 -48 -55 -10 -10 -29
-29 -43 -41 -18 -15 -26 -31 -26 -53 0 -30 -37 -80 -59 -80 -5 0 -14 -21 -19
-47 -6 -27 -18 -52 -28 -58 -10 -5 -33 -25 -51 -42 -60 -59 -168 -45 -251 32
-15 14 -30 25 -34 25 -4 0 -17 17 -27 38 -11 20 -44 58 -73 83 -74 64 -154
137 -213 194 -27 26 -66 58 -85 71 -19 13 -53 37 -75 54 -22 16 -53 38 -70 48
-16 9 -42 32 -59 50 -16 17 -34 32 -40 32 -5 0 -21 11 -35 24 -15 13 -71 47
-125 75 -55 28 -109 59 -120 70 -12 10 -35 25 -51 34 -17 8 -39 24 -49 36 -11
12 -29 21 -42 21 -34 0 -75 18 -102 45 -13 13 -36 27 -52 30 -15 3 -36 15 -45
25 -9 10 -39 24 -67 30 -30 8 -62 24 -79 41 -16 16 -39 29 -50 29 -28 0 -126
50 -203 104 -15 10 -48 23 -73 27 -28 6 -58 20 -75 36 -20 19 -41 27 -80 31
-37 3 -65 14 -94 34 -33 23 -55 30 -115 35 -60 5 -81 11 -109 34 -25 19 -50
28 -87 31 -36 4 -63 13 -86 31 -29 22 -50 27 -118 33 -65 5 -93 12 -122 31
-43 27 -121 43 -216 43 -52 0 -73 5 -110 27 -45 27 -49 27 -281 34 -207 6
-243 9 -300 29 -59 20 -87 23 -305 25 -132 2 -274 0 -315 -5z"/>
</g></svg>